<?xml version="1.0" encoding="utf-8"?>
<!-- Svg Vector Icons : http://www.onlinewebfonts.com/icon -->
<!DOCTYPE svg PUBLIC "-//W3C//DTD SVG 1.1//EN" "http://www.w3.org/Graphics/SVG/1.1/DTD/svg11.dtd">
<svg version="1.1" xmlns="http://www.w3.org/2000/svg" xmlns:xlink="http://www.w3.org/1999/xlink" x="0px" y="0px" viewBox="0 0 256 256" enable-background="new 0 0 256 256" xml:space="preserve">
<metadata> Svg Vector Icons : http://www.onlinewebfonts.com/icon </metadata>
<g><g><path fill="#000000" d="M245.9,127.1c-0.8-20.8-7.1-40-17.4-56.4c-10.7-17-25.8-31-43.6-40.3c-14.5-7.4-36.6-8.3-58.2,5.3c-6.5,4.1-14.4,12.9-19.9,19.6c7.9-9.3,29.6-17.3,50.7,6.4c12.2,13.7,24,28.6,49.1,76.1c0,0,10.4,23.9,10.9,37.1c1,25.9-11,44.8-24.9,53.5C226,207.4,247.6,169.4,245.9,127.1z M48.9,176.9c6.8,3.6,18.3,6.1,26.8,7.5c-12-2.2-29.7-17-19.8-47.3C61.6,119.6,68.6,102,97,56.4c0,0,15.4-21,26.6-28c21.9-13.8,44.2-12.8,58.7-5.1C147.4,4.8,103.9,5,68.2,27.6c-17.5,11.1-31,26.2-40,43.3c-9.3,17.8-13.8,37.9-13,58.1C16,145.3,26.3,164.9,48.9,176.9z M209.4,175.1c-0.3-7.7-4-19-6.9-27.1c4.1,11.5,0.1,34.3-30.9,40.8c-18,3.8-36.7,6.6-90.3,4.6c0,0-25.8-2.9-37.5-9.1c-22.9-12.1-33.1-32-33.8-48.4c1.5,39.5,23.5,77.2,60.9,96.9c18.3,9.7,38.1,13.8,57.4,13.1c20.1-0.8,39.7-6.9,56.7-17.7C198.6,219.4,210.4,200.6,209.4,175.1z"/></g></g>
</svg>